<svg xmlns="http://www.w3.org/2000/svg" width="404" height="406.34" viewBox="0 0 404 406.34">
  <defs>
    <style>
      .cls-1 {
        fill: #fff;
      }

      .cls-1, .cls-10, .cls-11, .cls-12, .cls-13, .cls-14, .cls-15, .cls-2, .cls-3, .cls-4, .cls-5, .cls-6, .cls-7, .cls-8, .cls-9 {
        stroke: #192d41;
        stroke-width: 4px;
      }

      .cls-11, .cls-2, .cls-3 {
        fill: none;
      }

      .cls-10, .cls-11, .cls-2, .cls-3, .cls-7 {
        stroke-linecap: round;
        stroke-linejoin: round;
      }

      .cls-3 {
        stroke-dasharray: 81.081 40.54 3040.541 81.081 40.54 3040.541;
      }

      .cls-10, .cls-4 {
        fill: #05c3ff;
      }

      .cls-5 {
        fill: #055fd7;
      }

      .cls-6 {
        fill: #ff5757;
      }

      .cls-7, .cls-8 {
        fill: #ffc83c;
      }

      .cls-9 {
        fill: #61cfff;
      }

      .cls-11 {
        stroke-dasharray: 91.216 40.54 506.757 91.216 40.54 506.757;
      }

      .cls-12 {
        fill: #ff8c00;
      }

      .cls-13 {
        fill: #0fffd7;
      }

      .cls-14 {
        fill: #ff2d55;
      }

      .cls-15 {
        fill: #05ebff;
      }
    </style>
  </defs>
  <g id="Grupo_209" data-name="Grupo 209" transform="translate(1568.28 -4941.094)">
    <path id="Trazado_508" data-name="Trazado 508" class="cls-1" d="M668.919,864.646V800.676H939.854v63.971" transform="translate(-2148.587 4344.862)"/>
    <path id="Trazado_509" data-name="Trazado 509" class="cls-2" d="M668.919,864.646V800.676H939.854v63.971" transform="translate(-2148.587 4344.862)"/>
    <path id="Trazado_510" data-name="Trazado 510" class="cls-3" d="M206.371,143.673A100.012,100.012,0,1,1,10.135,170.946c0-55.229,46.07-100,101.3-100" transform="translate(-1576.415 4890.704)"/>
    <path id="Trazado_511" data-name="Trazado 511" class="cls-4" d="M258.622,246.574h-6.468a5.333,5.333,0,0,1-4.46-3.455,50.568,50.568,0,0,0-2.152-5.14,5.288,5.288,0,0,1,.7-5.571l4.606-4.606a8.293,8.293,0,0,0,0-11.7l-7.484-7.484a8.267,8.267,0,0,0-11.7,0l-4.606,4.606a4.744,4.744,0,0,1-3.3,1.182,5.168,5.168,0,0,1-2.269-.489,51.683,51.683,0,0,0-5.145-2.148,5.346,5.346,0,0,1-3.458-4.46v-6.467a8.282,8.282,0,0,0-8.274-8.272H194.042a8.284,8.284,0,0,0-8.278,8.272v6.467a5.334,5.334,0,0,1-3.455,4.46,51.09,51.09,0,0,0-5.148,2.148,5.257,5.257,0,0,1-2.265.489,4.75,4.75,0,0,1-3.308-1.182l-4.6-4.606a8.262,8.262,0,0,0-11.7,0l-7.479,7.484a8.29,8.29,0,0,0,0,11.7l4.6,4.6a5.276,5.276,0,0,1,.694,5.571,49.664,49.664,0,0,0-2.146,5.147,5.345,5.345,0,0,1-4.46,3.455h-6.468a8.281,8.281,0,0,0-8.272,8.272v10.571a8.289,8.289,0,0,0,8.276,8.278h6.47a5.353,5.353,0,0,1,4.457,3.456,50.615,50.615,0,0,0,2.151,5.146,5.291,5.291,0,0,1-.692,5.571l-4.606,4.606a8.283,8.283,0,0,0,0,11.7l7.474,7.471a8.281,8.281,0,0,0,11.7,0l4.6-4.606a4.707,4.707,0,0,1,3.3-1.182,5.212,5.212,0,0,1,2.275.489,51.211,51.211,0,0,0,5.148,2.155,5.343,5.343,0,0,1,3.459,4.459v6.467a8.281,8.281,0,0,0,8.274,8.272h10.569a8.282,8.282,0,0,0,8.274-8.272v-6.467a5.35,5.35,0,0,1,3.459-4.459,52.008,52.008,0,0,0,5.147-2.147,5.362,5.362,0,0,1,2.27-.489,4.724,4.724,0,0,1,3.3,1.188l4.6,4.593a8.269,8.269,0,0,0,11.7,0l7.478-7.478a8.269,8.269,0,0,0,.006-11.7l-4.606-4.606a5.288,5.288,0,0,1-.7-5.571,50.137,50.137,0,0,0,2.152-5.146,5.355,5.355,0,0,1,4.46-3.456h6.468a8.28,8.28,0,0,0,8.27-8.271V254.846a8.28,8.28,0,0,0-8.27-8.272m-59.3,33.831a20.27,20.27,0,1,1,20.27-20.27,20.27,20.27,0,0,1-20.27,20.27" transform="translate(-1665.605 4801.515)"/>
    <path id="Trazado_512" data-name="Trazado 512" class="cls-2" d="M258.622,246.574h-6.468a5.333,5.333,0,0,1-4.46-3.455,50.568,50.568,0,0,0-2.152-5.14,5.288,5.288,0,0,1,.7-5.571l4.606-4.606a8.293,8.293,0,0,0,0-11.7l-7.484-7.484a8.267,8.267,0,0,0-11.7,0l-4.606,4.606a4.744,4.744,0,0,1-3.3,1.182,5.168,5.168,0,0,1-2.269-.489,51.683,51.683,0,0,0-5.145-2.148,5.346,5.346,0,0,1-3.458-4.46v-6.467a8.282,8.282,0,0,0-8.274-8.272H194.042a8.284,8.284,0,0,0-8.278,8.272v6.467a5.334,5.334,0,0,1-3.455,4.46,51.09,51.09,0,0,0-5.148,2.148,5.257,5.257,0,0,1-2.265.489,4.75,4.75,0,0,1-3.308-1.182l-4.6-4.606a8.262,8.262,0,0,0-11.7,0l-7.479,7.484a8.29,8.29,0,0,0,0,11.7l4.6,4.6a5.276,5.276,0,0,1,.694,5.571,49.664,49.664,0,0,0-2.146,5.147,5.345,5.345,0,0,1-4.46,3.455h-6.468a8.281,8.281,0,0,0-8.272,8.272v10.571a8.289,8.289,0,0,0,8.276,8.278h6.47a5.353,5.353,0,0,1,4.457,3.456,50.615,50.615,0,0,0,2.151,5.146,5.291,5.291,0,0,1-.692,5.571l-4.606,4.606a8.283,8.283,0,0,0,0,11.7l7.474,7.471a8.281,8.281,0,0,0,11.7,0l4.6-4.606a4.707,4.707,0,0,1,3.3-1.182,5.212,5.212,0,0,1,2.275.489,51.211,51.211,0,0,0,5.148,2.155,5.343,5.343,0,0,1,3.459,4.459v6.467a8.281,8.281,0,0,0,8.274,8.272h10.569a8.282,8.282,0,0,0,8.274-8.272v-6.467a5.35,5.35,0,0,1,3.459-4.459,52.008,52.008,0,0,0,5.147-2.147,5.362,5.362,0,0,1,2.27-.489,4.724,4.724,0,0,1,3.3,1.188l4.6,4.593a8.269,8.269,0,0,0,11.7,0l7.478-7.478a8.269,8.269,0,0,0,.006-11.7l-4.606-4.606a5.288,5.288,0,0,1-.7-5.571,50.137,50.137,0,0,0,2.152-5.146,5.355,5.355,0,0,1,4.46-3.456h6.468a8.28,8.28,0,0,0,8.27-8.271V254.846A8.28,8.28,0,0,0,258.622,246.574Zm-59.3,33.831a20.27,20.27,0,1,1,20.27-20.27A20.27,20.27,0,0,1,199.325,280.4Z" transform="translate(-1665.605 4801.515)"/>
    <path id="Trazado_513" data-name="Trazado 513" class="cls-5" d="M292.23,319.256a33.784,33.784,0,1,0,33.784,33.784,33.784,33.784,0,0,0-33.784-33.784m0,54.054a20.27,20.27,0,1,1,20.27-20.27,20.27,20.27,0,0,1-20.27,20.27" transform="translate(-1758.51 4708.61)"/>
    <path id="Trazado_514" data-name="Trazado 514" class="cls-2" d="M292.23,319.256a33.784,33.784,0,1,0,33.784,33.784A33.784,33.784,0,0,0,292.23,319.256Zm0,54.054a20.27,20.27,0,1,1,20.27-20.27A20.27,20.27,0,0,1,292.23,373.31Z" transform="translate(-1758.51 4708.61)"/>
    <path id="Trazado_515" data-name="Trazado 515" class="cls-6" d="M884.393,41.459h-3.751a3.092,3.092,0,0,1-2.587-2,29.282,29.282,0,0,0-1.248-2.981,3.067,3.067,0,0,1,.406-3.231l2.671-2.671a4.81,4.81,0,0,0,0-6.788l-4.341-4.341a4.8,4.8,0,0,0-6.787,0l-2.672,2.671a2.752,2.752,0,0,1-1.914.686,3,3,0,0,1-1.316-.284,29.97,29.97,0,0,0-2.984-1.246,3.1,3.1,0,0,1-2.006-2.587V14.933a4.8,4.8,0,0,0-4.8-4.8h-6.131a4.8,4.8,0,0,0-4.8,4.8v3.751a3.093,3.093,0,0,1-2,2.587,29.65,29.65,0,0,0-2.986,1.246,3.049,3.049,0,0,1-1.314.284,2.755,2.755,0,0,1-1.918-.686l-2.67-2.671a4.792,4.792,0,0,0-6.785,0l-4.338,4.341a4.809,4.809,0,0,0,0,6.788l2.668,2.667a3.06,3.06,0,0,1,.4,3.231,28.8,28.8,0,0,0-1.245,2.985,3.1,3.1,0,0,1-2.587,2h-3.751a4.8,4.8,0,0,0-4.8,4.8v6.131a4.808,4.808,0,0,0,4.8,4.8h3.752a3.1,3.1,0,0,1,2.585,2,29.352,29.352,0,0,0,1.248,2.985,3.068,3.068,0,0,1-.4,3.231l-2.672,2.671a4.8,4.8,0,0,0,0,6.787l4.335,4.334a4.8,4.8,0,0,0,6.786,0l2.669-2.671a2.728,2.728,0,0,1,1.913-.686,3.026,3.026,0,0,1,1.319.283,29.741,29.741,0,0,0,2.986,1.25,3.1,3.1,0,0,1,2.006,2.586v3.751a4.8,4.8,0,0,0,4.8,4.8h6.131a4.8,4.8,0,0,0,4.8-4.8V79.965a3.1,3.1,0,0,1,2.007-2.586,30.323,30.323,0,0,0,2.985-1.246,3.109,3.109,0,0,1,1.317-.284,2.741,2.741,0,0,1,1.917.689l2.666,2.664a4.8,4.8,0,0,0,6.787,0l4.337-4.337a4.8,4.8,0,0,0,0-6.784l-2.671-2.671a3.067,3.067,0,0,1-.406-3.231,29.04,29.04,0,0,0,1.248-2.985,3.1,3.1,0,0,1,2.587-2h3.751a4.8,4.8,0,0,0,4.8-4.8V46.257a4.8,4.8,0,0,0-4.8-4.8M850,61.081a11.757,11.757,0,1,1,11.757-11.757A11.756,11.756,0,0,1,850,61.081" transform="translate(-2163.577 4935.298)"/>
    <path id="Trazado_516" data-name="Trazado 516" class="cls-7" d="M884.393,41.459h-3.751a3.092,3.092,0,0,1-2.587-2,29.282,29.282,0,0,0-1.248-2.981,3.067,3.067,0,0,1,.406-3.231l2.671-2.671a4.81,4.81,0,0,0,0-6.788l-4.341-4.341a4.8,4.8,0,0,0-6.787,0l-2.672,2.671a2.752,2.752,0,0,1-1.914.686,3,3,0,0,1-1.316-.284,29.97,29.97,0,0,0-2.984-1.246,3.1,3.1,0,0,1-2.006-2.587V14.933a4.8,4.8,0,0,0-4.8-4.8h-6.131a4.8,4.8,0,0,0-4.8,4.8v3.751a3.093,3.093,0,0,1-2,2.587,29.65,29.65,0,0,0-2.986,1.246,3.049,3.049,0,0,1-1.314.284,2.755,2.755,0,0,1-1.918-.686l-2.67-2.671a4.792,4.792,0,0,0-6.785,0l-4.338,4.341a4.809,4.809,0,0,0,0,6.788l2.668,2.667a3.06,3.06,0,0,1,.4,3.231,28.8,28.8,0,0,0-1.245,2.985,3.1,3.1,0,0,1-2.587,2h-3.751a4.8,4.8,0,0,0-4.8,4.8v6.131a4.808,4.808,0,0,0,4.8,4.8h3.752a3.1,3.1,0,0,1,2.585,2,29.352,29.352,0,0,0,1.248,2.985,3.068,3.068,0,0,1-.4,3.231l-2.672,2.671a4.8,4.8,0,0,0,0,6.787l4.335,4.334a4.8,4.8,0,0,0,6.786,0l2.669-2.671a2.728,2.728,0,0,1,1.913-.686,3.026,3.026,0,0,1,1.319.283,29.741,29.741,0,0,0,2.986,1.25,3.1,3.1,0,0,1,2.006,2.586v3.751a4.8,4.8,0,0,0,4.8,4.8h6.131a4.8,4.8,0,0,0,4.8-4.8V79.965a3.1,3.1,0,0,1,2.007-2.586,30.323,30.323,0,0,0,2.985-1.246,3.109,3.109,0,0,1,1.317-.284,2.741,2.741,0,0,1,1.917.689l2.666,2.664a4.8,4.8,0,0,0,6.787,0l4.337-4.337a4.8,4.8,0,0,0,0-6.784l-2.671-2.671a3.067,3.067,0,0,1-.406-3.231,29.04,29.04,0,0,0,1.248-2.985,3.1,3.1,0,0,1,2.587-2h3.751a4.8,4.8,0,0,0,4.8-4.8V46.257A4.8,4.8,0,0,0,884.393,41.459ZM850,61.081a11.757,11.757,0,1,1,11.757-11.757A11.756,11.756,0,0,1,850,61.081Z" transform="translate(-2163.577 4935.298)"/>
    <path id="Trazado_517" data-name="Trazado 517" class="cls-8" d="M522.277,152.384v-25.9L553.358,95.4v25.9h25.9l-31.081,31.081Z" transform="translate(-1951.986 4872.769)"/>
    <path id="Trazado_518" data-name="Trazado 518" class="cls-7" d="M522.277,152.384v-25.9L553.358,95.4v25.9h25.9l-31.081,31.081Z" transform="translate(-1951.986 4872.769)"/>
    <line id="Línea_2" data-name="Línea 2" class="cls-2" y1="67.567" x2="67.342" transform="translate(-1466.055 4994.082)"/>
    <path id="Trazado_519" data-name="Trazado 519" class="cls-9" d="M385.135,10.135V42.468L404.054,26.3Z" transform="translate(-1851.415 4935.298)"/>
    <path id="Trazado_520" data-name="Trazado 520" class="cls-10" d="M385.135,10.135V42.468L404.054,26.3Z" transform="translate(-1851.415 4935.298)"/>
    <path id="Trazado_521" data-name="Trazado 521" class="cls-8" d="M992.3,458.649H1075l18.378,18.378V458.649h9.189a9.189,9.189,0,0,0,9.189-9.189V394.324a9.189,9.189,0,0,0-9.189-9.189H992.3a9.189,9.189,0,0,0-9.189,9.189V449.46a9.189,9.189,0,0,0,9.189,9.189" transform="translate(-2289.929 4660.298)"/>
    <path id="Trazado_522" data-name="Trazado 522" class="cls-7" d="M992.3,458.649H1075l18.378,18.378V458.649h9.189a9.189,9.189,0,0,0,9.189-9.189V394.324a9.189,9.189,0,0,0-9.189-9.189H992.3a9.189,9.189,0,0,0-9.189,9.189V449.46A9.189,9.189,0,0,0,992.3,458.649Z" transform="translate(-2289.929 4660.298)"/>
    <line id="Línea_3" data-name="Línea 3" class="cls-11" x1="59.73" transform="translate(-1260.875 5073.001)"/>
    <line id="Línea_4" data-name="Línea 4" class="cls-6" x1="73.514" transform="translate(-1274.658 5095.974)"/>
    <line id="Línea_5" data-name="Línea 5" class="cls-2" x1="73.514" transform="translate(-1274.658 5095.974)"/>
    <path id="Trazado_523" data-name="Trazado 523" class="cls-12" d="M273.593,1089.547l52.689-21.081a56.79,56.79,0,0,0-33.6-32.351Z" transform="translate(-1769.618 4182.914)"/>
    <path id="Trazado_524" data-name="Trazado 524" class="cls-2" d="M273.593,1089.547l52.689-21.081a56.79,56.79,0,0,0-33.6-32.351Z" transform="translate(-1769.618 4182.914)"/>
    <path id="Trazado_525" data-name="Trazado 525" class="cls-4" d="M273.7,1178.458l28.533,49.054a56.678,56.678,0,0,0,28.209-49.054,55.884,55.884,0,0,0-4.053-21.04Z" transform="translate(-1769.699 4093.958)"/>
    <path id="Trazado_526" data-name="Trazado 526" class="cls-2" d="M273.7,1178.458l28.533,49.054a56.678,56.678,0,0,0,28.209-49.054,55.884,55.884,0,0,0-4.053-21.04Z" transform="translate(-1769.699 4093.958)"/>
    <path id="Trazado_527" data-name="Trazado 527" class="cls-13" d="M60.811,1080.4a56.765,56.765,0,0,0,85.315,49.054L117.553,1080.4l19.09-53.473A56.8,56.8,0,0,0,60.811,1080.4" transform="translate(-1613.578 4192.056)"/>
    <path id="Trazado_528" data-name="Trazado 528" class="cls-2" d="M60.811,1080.4a56.765,56.765,0,0,0,85.315,49.054L117.553,1080.4l19.09-53.473A56.8,56.8,0,0,0,60.811,1080.4Z" transform="translate(-1613.578 4192.056)"/>
    <line id="Línea_6" data-name="Línea 6" class="cls-1" x2="116.216" transform="translate(-1328.442 5169.758)"/>
    <line id="Línea_7" data-name="Línea 7" class="cls-2" x2="116.216" transform="translate(-1328.442 5169.758)"/>
    <line id="Línea_8" data-name="Línea 8" class="cls-1" x2="116.216" transform="translate(-1328.442 5185.974)"/>
    <line id="Línea_9" data-name="Línea 9" class="cls-2" x2="116.216" transform="translate(-1328.442 5185.974)"/>
    <path id="Trazado_529" data-name="Trazado 529" class="cls-8" d="M557.432,891.892h54.054l15.741,21.622H811.487v143.243H557.432Z" transform="translate(-1977.766 4288.677)"/>
    <path id="Trazado_530" data-name="Trazado 530" class="cls-2" d="M557.432,891.892h54.054l15.741,21.622H811.487v143.243H557.432Z" transform="translate(-1977.766 4288.677)"/>
    <rect id="Rectángulo_1998" data-name="Rectángulo 1998" class="cls-14" width="21.622" height="43.243" transform="translate(-1355.469 5285.974)"/>
    <rect id="Rectángulo_1999" data-name="Rectángulo 1999" class="cls-2" width="21.622" height="43.243" transform="translate(-1355.469 5285.974)"/>
    <rect id="Rectángulo_2000" data-name="Rectángulo 2000" class="cls-15" width="21.622" height="81.081" transform="translate(-1320.334 5248.136)"/>
    <rect id="Rectángulo_2001" data-name="Rectángulo 2001" class="cls-2" width="21.622" height="81.081" transform="translate(-1320.334 5248.136)"/>
    <rect id="Rectángulo_2002" data-name="Rectángulo 2002" class="cls-12" width="21.622" height="64.865" transform="translate(-1285.199 5264.353)"/>
    <rect id="Rectángulo_2003" data-name="Rectángulo 2003" class="cls-2" width="21.622" height="64.865" transform="translate(-1285.199 5264.353)"/>
    <rect id="Rectángulo_2004" data-name="Rectángulo 2004" class="cls-13" width="21.622" height="94.595" transform="translate(-1250.064 5234.623)"/>
    <rect id="Rectángulo_2005" data-name="Rectángulo 2005" class="cls-2" width="21.622" height="94.595" transform="translate(-1250.064 5234.623)"/>
    <line id="Línea_10" data-name="Línea 10" class="cls-2" x2="154.054" transform="translate(-1368.983 5329.217)"/>
    <path id="Trazado_531" data-name="Trazado 531" class="cls-2" d="M841.216,1048.648l35.135-21.622,35.135,13.514,35.135-27.027" transform="translate(-2185.875 4199.488)"/>
    <path id="Trazado_532" data-name="Trazado 532" class="cls-2" d="M137.162,993.243,107.433,952.7H91.216" transform="translate(-1635.875 4244.082)"/>
    <rect id="Rectángulo_2006" data-name="Rectángulo 2006" class="cls-1" width="21.622" height="16.216" transform="translate(-1566.28 5188.676)"/>
    <rect id="Rectángulo_2007" data-name="Rectángulo 2007" class="cls-2" width="21.622" height="16.216" transform="translate(-1566.28 5188.676)"/>
  </g>
</svg>
